<svg width="49" height="143" viewBox="0 0 49 143" fill="none" xmlns="http://www.w3.org/2000/svg">
<path fill-rule="evenodd" clip-rule="evenodd" d="M3 1.5C3 0.671573 2.32843 0 1.5 0C0.671573 0 0 0.671573 0 1.5V130.5C0 131.042 0.287829 131.517 0.719066 131.781C0.982536 132.212 1.45765 132.5 2 132.5H43.3787L36.3934 139.485C35.8076 140.071 35.8076 141.021 36.3934 141.607C36.9792 142.192 37.9289 142.192 38.5147 141.607L48.0607 132.061C48.6464 131.475 48.6464 130.525 48.0607 129.939L38.5147 120.393C37.9289 119.808 36.9792 119.808 36.3934 120.393C35.8076 120.979 35.8076 121.929 36.3934 122.515L43.3787 129.5H3V1.5Z" fill="#333333"/>
</svg>
