<svg width="40" height="40" viewBox="0 0 40 40" fill="none" xmlns="http://www.w3.org/2000/svg">
<path fill-rule="evenodd" clip-rule="evenodd" d="M20 2C29.9411 2 38 10.0589 38 20C38 29.9411 29.9411 38 20 38C10.0589 38 2 29.9411 2 20C2 10.0589 10.0589 2 20 2ZM20 0C31.0457 0 40 8.95431 40 20C40 31.0457 31.0457 40 20 40C8.9543 40 0 31.0457 0 20C0 8.95431 8.9543 0 20 0ZM7.5 19.8158L18.2869 12.1989L27.5 6L11.5976 19.8158L27.5 33.5L18.2869 27.4327L7.5 19.8158ZM17.5 20.0431L24.2418 15.0574L30 11L20.061 20.0431L30 29L24.2418 25.0287L17.5 20.0431Z" fill="#333333" fill-opacity="0.6"/>
</svg>
