<svg width="55" height="55" viewBox="0 0 55 55" fill="none" xmlns="http://www.w3.org/2000/svg">
<path d="M27.4999 4.58331C21.422 4.58331 15.5931 6.99774 11.2954 11.2954C6.99768 15.5932 4.58325 21.4221 4.58325 27.5C4.58325 33.5779 6.99768 39.4068 11.2954 43.7045C15.5931 48.0022 21.422 50.4166 27.4999 50.4166C33.5778 50.4166 39.4067 48.0022 43.7044 43.7045C48.0022 39.4068 50.4166 33.5779 50.4166 27.5C50.4166 21.4221 48.0022 15.5932 43.7044 11.2954C39.4067 6.99774 33.5778 4.58331 27.4999 4.58331Z" fill="#1976D2"/>
<path d="M41.1778 20.672C41.2305 20.499 41.2557 20.3386 41.2489 20.1953C41.2317 19.7805 40.9464 19.4792 40.2749 19.4792H37.2751C36.5177 19.4792 36.1682 19.9375 35.9643 20.397C35.9643 20.397 34.0943 24.2459 31.939 26.7839C31.24 27.5184 30.8848 27.5 30.5067 27.5C30.3039 27.5 29.7917 27.2548 29.7917 26.5822V20.6411C29.7917 19.8459 29.5934 19.4792 28.9529 19.4792H23.6259C23.1596 19.4792 22.9167 19.8459 22.9167 20.2137C22.9167 20.9779 23.9456 21.1613 24.0625 23.3028V27.4542C24.0625 28.4625 23.8872 28.6459 23.5091 28.6459C22.4893 28.6459 20.4818 25.2084 19.1377 20.7029C18.8467 19.8161 18.5556 19.4792 17.7982 19.4792H14.7698C13.8955 19.4792 13.75 19.9077 13.75 20.3661C13.75 21.1922 14.4375 25.6587 18.1901 30.7943C20.9115 34.5183 24.4968 36.6667 27.6707 36.6667C29.5934 36.6667 29.7905 36.1774 29.7905 35.4131V32.0077C29.7917 31.0899 30.0014 30.9375 30.6132 30.9375C31.0498 30.9375 31.9401 31.224 33.6589 33.2292C35.6411 35.5415 36.0009 36.6667 37.1376 36.6667H40.1374C40.8341 36.6667 41.234 36.3745 41.25 35.8073C41.2534 35.6629 41.2328 35.5014 41.1858 35.3215C40.9635 34.6615 39.9437 33.0481 38.6719 31.5104C37.9672 30.6591 37.2717 29.8158 36.952 29.3574C36.7377 29.0584 36.6564 28.8475 36.6667 28.6459C36.677 28.4339 36.787 28.2322 36.952 27.9503C36.9222 27.9503 40.7997 22.5065 41.1778 20.672Z" fill="white"/>
</svg>
