<svg width="24" height="26" viewBox="0 0 24 26" fill="none" xmlns="http://www.w3.org/2000/svg">
<rect width="24" height="26" rx="5" fill="#1877F2"/>
<path d="M23.5 13.0699C23.5 6.7186 18.3513 1.56988 12 1.56988C5.64872 1.56988 0.5 6.7186 0.5 13.0699C0.5 18.8099 4.70538 23.5674 10.2031 24.4302V16.3941H7.2832V13.0699H10.2031V10.5363C10.2031 7.6541 11.92 6.06207 14.5468 6.06207C15.805 6.06207 17.1211 6.28668 17.1211 6.28668V9.11675H15.671C14.2424 9.11675 13.7969 10.0032 13.7969 10.9127V13.0699H16.9863L16.4765 16.3941H13.7969V24.4302C19.2946 23.5674 23.5 18.8099 23.5 13.0699Z" fill="white"/>
</svg>
