<svg width="22" height="16" viewBox="0 0 22 16" fill="none" xmlns="http://www.w3.org/2000/svg">
<path fill-rule="evenodd" clip-rule="evenodd" d="M0.0162093 1.5C0.0162093 1.5 0.0162093 3.11984 0.0162093 4.8V11.2C0.0162093 12.8802 0.0161133 14.5 0.0161133 14.5V16H1.6628C1.6628 16 3.44115 16 5.28561 16H16.7026C18.5471 16 20.3253 16 20.3253 16C21.0567 16 21.972 16 21.972 16C21.972 16 21.9721 12.8802 21.9721 11.2V4.8C21.9721 3.11984 21.972 2 21.972 1.5V0C21.972 0 18.5471 0 16.7026 0H5.28561C3.44115 0 1.6629 0 1.6629 0H0.0162093V1.5ZM3.30949 3C2.90571 3.36781 3.85839 4.5 3.85839 4.5L10.994 13L18.1297 4.5C18.1297 4.5 19.0562 3.34402 18.6786 3C18.3009 2.65598 17.0319 4 17.0319 4L10.994 11L4.95618 4C4.95618 4 3.71327 2.63219 3.30949 3Z" fill="#4D4D4D"/>
</svg>
