<svg width="55" height="55" viewBox="0 0 55 55" fill="none" xmlns="http://www.w3.org/2000/svg">
<path d="M38.9778 48.1136L16.0611 48.1354C11.0195 48.1399 6.89103 44.0195 6.8853 38.9779L6.86353 16.0612C6.85895 11.0195 10.9794 6.89109 16.021 6.88536L38.9377 6.86359C43.9794 6.85901 48.1078 10.9794 48.1135 16.0211L48.1353 38.9378C48.141 43.9806 44.0195 48.109 38.9778 48.1136Z" fill="url(#paint0_radial_72_436)"/>
<path d="M38.9778 48.1136L16.0611 48.1354C11.0195 48.1399 6.89103 44.0195 6.8853 38.9779L6.86353 16.0612C6.85895 11.0195 10.9794 6.89109 16.021 6.88536L38.9377 6.86359C43.9794 6.85901 48.1078 10.9794 48.1135 16.0211L48.1353 38.9378C48.141 43.9806 44.0195 48.109 38.9778 48.1136Z" fill="url(#paint1_radial_72_436)"/>
<path d="M27.5001 35.5209C23.0783 35.5209 19.4792 31.9229 19.4792 27.5C19.4792 23.0771 23.0783 19.4792 27.5001 19.4792C31.9219 19.4792 35.5209 23.0771 35.5209 27.5C35.5209 31.9229 31.9219 35.5209 27.5001 35.5209ZM27.5001 21.7709C24.341 21.7709 21.7709 24.341 21.7709 27.5C21.7709 30.6591 24.341 33.2292 27.5001 33.2292C30.6591 33.2292 33.2292 30.6591 33.2292 27.5C33.2292 24.341 30.6591 21.7709 27.5001 21.7709Z" fill="white"/>
<path d="M36.0938 20.625C37.043 20.625 37.8125 19.8555 37.8125 18.9062C37.8125 17.957 37.043 17.1875 36.0938 17.1875C35.1445 17.1875 34.375 17.957 34.375 18.9062C34.375 19.8555 35.1445 20.625 36.0938 20.625Z" fill="white"/>
<path d="M34.3751 42.3959H20.6251C16.2033 42.3959 12.6042 38.7979 12.6042 34.375V20.625C12.6042 16.2021 16.2033 12.6042 20.6251 12.6042H34.3751C38.7969 12.6042 42.3959 16.2021 42.3959 20.625V34.375C42.3959 38.7979 38.7969 42.3959 34.3751 42.3959ZM20.6251 14.8959C17.466 14.8959 14.8959 17.466 14.8959 20.625V34.375C14.8959 37.5341 17.466 40.1042 20.6251 40.1042H34.3751C37.5341 40.1042 40.1042 37.5341 40.1042 34.375V20.625C40.1042 17.466 37.5341 14.8959 34.3751 14.8959H20.6251Z" fill="white"/>
<defs>
<radialGradient id="paint0_radial_72_436" cx="0" cy="0" r="1" gradientUnits="userSpaceOnUse" gradientTransform="translate(22.2062 48.1652) scale(51.4468)">
<stop stop-color="#FFDD55"/>
<stop offset="0.328" stop-color="#FF543F"/>
<stop offset="0.348" stop-color="#FC5245"/>
<stop offset="0.504" stop-color="#E64771"/>
<stop offset="0.643" stop-color="#D53E91"/>
<stop offset="0.761" stop-color="#CC39A4"/>
<stop offset="0.841" stop-color="#C837AB"/>
</radialGradient>
<radialGradient id="paint1_radial_72_436" cx="0" cy="0" r="1" gradientUnits="userSpaceOnUse" gradientTransform="translate(13.5048 6.34831) scale(34.1607 22.7613)">
<stop stop-color="#4168C9"/>
<stop offset="0.999" stop-color="#4168C9" stop-opacity="0"/>
</radialGradient>
</defs>
</svg>
