<svg width="55" height="55" viewBox="0 0 55 55" fill="none" xmlns="http://www.w3.org/2000/svg">
<path d="M27.4999 4.58331C21.422 4.58331 15.5931 6.99774 11.2954 11.2955C6.99768 15.5932 4.58325 21.4221 4.58325 27.5C4.58325 33.5779 6.99768 39.4068 11.2954 43.7045C15.5931 48.0022 21.422 50.4167 27.4999 50.4167C33.5778 50.4167 39.4067 48.0022 43.7044 43.7045C48.0022 39.4068 50.4166 33.5779 50.4166 27.5C50.4166 21.4221 48.0022 15.5932 43.7044 11.2955C39.4067 6.99774 33.5778 4.58331 27.4999 4.58331Z" fill="#29B6F6"/>
<path d="M38.901 17.1875L34.6087 39.1027C34.6087 39.1027 34.4242 40.1042 33.1821 40.1042C32.5221 40.1042 32.1818 39.7902 32.1818 39.7902L22.8845 32.0753L18.3355 29.7825L12.4975 28.2299C12.4975 28.2299 11.4583 27.9297 11.4583 27.0703C11.4583 26.3542 12.5273 26.0127 12.5273 26.0127L36.9519 16.3098C36.9508 16.3087 37.6978 16.0405 38.2421 16.0417C38.5767 16.0417 38.9583 16.1849 38.9583 16.6146C38.9583 16.9011 38.901 17.1875 38.901 17.1875Z" fill="white"/>
<path d="M26.3541 34.9536L22.4285 38.8197C22.4285 38.8197 22.2578 38.9514 22.0297 38.9572C21.9507 38.9595 21.8659 38.9469 21.7788 38.9079L22.8834 32.073L26.3541 34.9536Z" fill="#B0BEC5"/>
<path d="M34.2569 20.8496C34.0633 20.5975 33.7058 20.5517 33.4537 20.743L18.3333 29.7917C18.3333 29.7917 20.7464 36.5429 21.1142 37.7117C21.4831 38.8816 21.7788 38.9091 21.7788 38.9091L22.8834 32.0742L34.1492 21.6517C34.4013 21.4603 34.4483 21.1017 34.2569 20.8496Z" fill="#CFD8DC"/>
</svg>
