<svg width="55" height="55" viewBox="0 0 55 55" fill="none" xmlns="http://www.w3.org/2000/svg">
<path d="M27.4999 4.58331C21.422 4.58331 15.5931 6.99774 11.2954 11.2954C6.99768 15.5932 4.58325 21.4221 4.58325 27.5C4.58325 33.5779 6.99768 39.4068 11.2954 43.7045C15.5931 48.0022 21.422 50.4166 27.4999 50.4166C33.5778 50.4166 39.4067 48.0022 43.7044 43.7045C48.0022 39.4068 50.4166 33.5779 50.4166 27.5C50.4166 21.4221 48.0022 15.5932 43.7044 11.2954C39.4067 6.99774 33.5778 4.58331 27.4999 4.58331Z" fill="#03A9F4"/>
<path d="M41.25 19.6167C40.2394 20.0647 38.9595 20.4852 37.8125 20.625C38.979 19.9329 40.8295 18.4915 41.25 17.1875C40.1603 17.828 38.1895 18.5121 36.9039 18.7596C35.8772 17.671 34.4128 17.1875 32.7903 17.1875C29.6736 17.1875 27.5 19.8286 27.5 22.9167V25.2083C22.9167 25.2083 18.4479 21.717 15.667 18.3333C15.1777 19.1595 14.9027 20.1266 14.9027 21.1486C14.9027 23.2329 16.8174 25.3481 18.3333 26.3542C17.4086 26.3255 15.6578 25.6197 14.8958 25.2083C14.8958 25.2267 14.8958 25.2496 14.8958 25.2736C14.8958 27.9858 16.7991 29.8272 19.3783 30.3405C18.9074 30.47 18.3333 30.9375 16.1242 30.9375C16.8415 33.1547 20.4474 34.3269 22.9167 34.375C20.9848 35.8726 17.5404 36.6667 14.8958 36.6667C14.4386 36.6667 14.1911 36.6919 13.75 36.6403C16.2456 38.2216 19.7313 38.9583 22.9167 38.9583C33.2945 38.9583 38.9583 31.0315 38.9583 23.6385C38.9583 23.3956 38.9503 22.5821 38.9377 22.3437C40.0469 21.5623 40.496 20.7442 41.25 19.6167Z" fill="white"/>
</svg>
