<svg width="111" height="42" viewBox="0 0 111 42" fill="none" xmlns="http://www.w3.org/2000/svg">
<path d="M1.648 19C1.296 19 1 18.88 0.76 18.64C0.52 18.4 0.4 18.104 0.4 17.752V1.504C0.4 1.136 0.52 0.839999 0.76 0.615999C1 0.375999 1.296 0.256 1.648 0.256C2.016 0.256 2.312 0.375999 2.536 0.615999C2.776 0.839999 2.896 1.136 2.896 1.504V8.392H14.032V1.504C14.032 1.136 14.152 0.839999 14.392 0.615999C14.632 0.375999 14.928 0.256 15.28 0.256C15.648 0.256 15.944 0.375999 16.168 0.615999C16.392 0.839999 16.504 1.136 16.504 1.504V17.752C16.504 18.104 16.392 18.4 16.168 18.64C15.944 18.88 15.648 19 15.28 19C14.928 19 14.632 18.88 14.392 18.64C14.152 18.4 14.032 18.104 14.032 17.752V10.6H2.896V17.752C2.896 18.104 2.776 18.4 2.536 18.64C2.312 18.88 2.016 19 1.648 19ZM27.2583 19.096C25.9622 19.096 24.8182 18.816 23.8262 18.256C22.8342 17.68 22.0502 16.896 21.4742 15.904C20.9142 14.896 20.6342 13.744 20.6342 12.448C20.6342 11.136 20.9142 9.984 21.4742 8.992C22.0502 7.984 22.8342 7.2 23.8262 6.64C24.8182 6.064 25.9622 5.776 27.2583 5.776C28.5383 5.776 29.6743 6.064 30.6663 6.64C31.6583 7.2 32.4343 7.984 32.9943 8.992C33.5703 9.984 33.8583 11.136 33.8583 12.448C33.8583 13.744 33.5783 14.896 33.0182 15.904C32.4583 16.896 31.6823 17.68 30.6903 18.256C29.6983 18.816 28.5543 19.096 27.2583 19.096ZM27.2583 16.936C28.0903 16.936 28.8263 16.744 29.4662 16.36C30.1063 15.976 30.6023 15.448 30.9543 14.776C31.3223 14.104 31.5063 13.328 31.5063 12.448C31.5063 11.568 31.3223 10.792 30.9543 10.12C30.6023 9.432 30.1063 8.896 29.4662 8.512C28.8263 8.128 28.0903 7.936 27.2583 7.936C26.4263 7.936 25.6903 8.128 25.0502 8.512C24.4103 8.896 23.9063 9.432 23.5383 10.12C23.1703 10.792 22.9863 11.568 22.9863 12.448C22.9863 13.328 23.1703 14.104 23.5383 14.776C23.9063 15.448 24.4103 15.976 25.0502 16.36C25.6903 16.744 26.4263 16.936 27.2583 16.936ZM42.5176 19C41.7176 19 40.9976 18.8 40.3576 18.4C39.7176 17.984 39.2136 17.424 38.8456 16.72C38.4776 16.016 38.2936 15.224 38.2936 14.344V8.416H37.1896C36.8536 8.416 36.5816 8.32 36.3736 8.128C36.1656 7.936 36.0616 7.696 36.0616 7.408C36.0616 7.088 36.1656 6.832 36.3736 6.64C36.5816 6.448 36.8536 6.352 37.1896 6.352H38.2936V2.896C38.2936 2.544 38.4056 2.256 38.6296 2.032C38.8536 1.808 39.1416 1.696 39.4936 1.696C39.8456 1.696 40.1336 1.808 40.3576 2.032C40.5816 2.256 40.6936 2.544 40.6936 2.896V6.352H42.7336C43.0696 6.352 43.3416 6.448 43.5496 6.64C43.7576 6.832 43.8616 7.088 43.8616 7.408C43.8616 7.696 43.7576 7.936 43.5496 8.128C43.3416 8.32 43.0696 8.416 42.7336 8.416H40.6936V14.344C40.6936 14.984 40.8696 15.52 41.2216 15.952C41.5736 16.384 42.0056 16.6 42.5176 16.6H43.3336C43.6216 16.6 43.8616 16.712 44.0536 16.936C44.2616 17.16 44.3656 17.448 44.3656 17.8C44.3656 18.152 44.2296 18.44 43.9576 18.664C43.7016 18.888 43.3656 19 42.9496 19H42.5176ZM1.648 41C1.296 41 1 40.88 0.76 40.64C0.52 40.4 0.4 40.104 0.4 39.752V23.504C0.4 23.136 0.52 22.84 0.76 22.616C1 22.376 1.296 22.256 1.648 22.256C2.016 22.256 2.312 22.376 2.536 22.616C2.776 22.84 2.896 23.136 2.896 23.504V30.392H5.368L11.824 22.664C12.048 22.392 12.336 22.256 12.688 22.256C13.056 22.24 13.352 22.36 13.576 22.616C13.8 22.872 13.904 23.144 13.888 23.432C13.888 23.704 13.776 23.968 13.552 24.224L7.48 31.28L14.176 39.056C14.4 39.312 14.52 39.584 14.536 39.872C14.568 40.144 14.448 40.416 14.176 40.688C13.952 40.912 13.648 41.016 13.264 41C12.88 41 12.576 40.872 12.352 40.616L5.464 32.6H2.896V39.752C2.896 40.104 2.776 40.4 2.536 40.64C2.312 40.88 2.016 41 1.648 41ZM25.8978 41.24C24.4898 41.24 23.2018 41.008 22.0338 40.544C20.8658 40.064 19.8578 39.4 19.0098 38.552C18.1777 37.688 17.5297 36.672 17.0657 35.504C16.6017 34.32 16.3697 33.024 16.3697 31.616C16.3697 30.208 16.6017 28.92 17.0657 27.752C17.5297 26.584 18.1777 25.576 19.0098 24.728C19.8578 23.864 20.8658 23.2 22.0338 22.736C23.2018 22.256 24.4898 22.016 25.8978 22.016C27.3058 22.016 28.5858 22.256 29.7378 22.736C30.9058 23.2 31.9138 23.864 32.7618 24.728C33.6098 25.576 34.2658 26.584 34.7298 27.752C35.1938 28.92 35.4258 30.208 35.4258 31.616C35.4258 33.024 35.1938 34.32 34.7298 35.504C34.2658 36.672 33.6098 37.688 32.7618 38.552C31.9138 39.4 30.9058 40.064 29.7378 40.544C28.5858 41.008 27.3058 41.24 25.8978 41.24ZM25.8978 38.984C27.2898 38.984 28.5218 38.664 29.5938 38.024C30.6658 37.368 31.5058 36.488 32.1138 35.384C32.7218 34.264 33.0258 33.008 33.0258 31.616C33.0258 30.224 32.7218 28.976 32.1138 27.872C31.5058 26.752 30.6658 25.872 29.5938 25.232C28.5218 24.592 27.2898 24.272 25.8978 24.272C24.5058 24.272 23.2738 24.592 22.2018 25.232C21.1298 25.872 20.2897 26.752 19.6817 27.872C19.0737 28.976 18.7697 30.224 18.7697 31.616C18.7697 33.008 19.0737 34.264 19.6817 35.384C20.2897 36.488 21.1298 37.368 22.2018 38.024C23.2738 38.664 24.5058 38.984 25.8978 38.984ZM38.4106 41C37.9626 41 37.6186 40.808 37.3786 40.424C37.1386 40.04 37.1146 39.632 37.3066 39.2L44.0506 23.096C44.2906 22.536 44.6826 22.256 45.2266 22.256C45.8026 22.256 46.1946 22.536 46.4026 23.096L53.1706 39.248C53.3466 39.696 53.3226 40.104 53.0986 40.472C52.8906 40.824 52.5546 41 52.0906 41C51.8506 41 51.6186 40.936 51.3946 40.808C51.1866 40.664 51.0346 40.472 50.9386 40.232L45.3226 26.384L39.5626 40.232C39.4506 40.488 39.2826 40.68 39.0586 40.808C38.8506 40.936 38.6346 41 38.4106 41ZM57.6571 41C57.3051 41 57.0091 40.88 56.7691 40.64C56.5291 40.4 56.4091 40.104 56.4091 39.752V23.504C56.4091 23.136 56.5291 22.84 56.7691 22.616C57.0091 22.376 57.3051 22.256 57.6571 22.256H68.5051C68.8731 22.256 69.1691 22.368 69.3931 22.592C69.6171 22.8 69.7291 23.08 69.7291 23.432C69.7291 23.768 69.6171 24.04 69.3931 24.248C69.1691 24.456 68.8731 24.56 68.5051 24.56H58.9051V30.392H65.7931C66.1611 30.392 66.4571 30.504 66.6811 30.728C66.9051 30.936 67.0171 31.208 67.0171 31.544C67.0171 31.88 66.9051 32.16 66.6811 32.384C66.4571 32.592 66.1611 32.696 65.7931 32.696H58.9051V38.696H68.5051C68.8731 38.696 69.1691 38.8 69.3931 39.008C69.6171 39.216 69.7291 39.488 69.7291 39.824C69.7291 40.176 69.6171 40.464 69.3931 40.688C69.1691 40.896 68.8731 41 68.5051 41H57.6571ZM81.8537 41.24C80.5577 41.24 79.3417 41 78.2057 40.52C77.0857 40.024 76.1017 39.344 75.2537 38.48C74.4217 37.6 73.7657 36.576 73.2857 35.408C72.8217 34.24 72.5897 32.976 72.5897 31.616C72.5897 30.272 72.8217 29.024 73.2857 27.872C73.7657 26.704 74.4217 25.688 75.2537 24.824C76.1017 23.944 77.0857 23.256 78.2057 22.76C79.3257 22.264 80.5417 22.016 81.8537 22.016C83.0857 22.016 84.1417 22.176 85.0217 22.496C85.9177 22.816 86.8137 23.344 87.7097 24.08C87.9017 24.24 88.0297 24.392 88.0938 24.536C88.1578 24.68 88.1898 24.856 88.1898 25.064C88.1898 25.368 88.0778 25.624 87.8538 25.832C87.6458 26.024 87.3898 26.136 87.0858 26.168C86.7818 26.184 86.4858 26.08 86.1978 25.856C85.6058 25.344 84.9897 24.952 84.3497 24.68C83.7257 24.408 82.8937 24.272 81.8537 24.272C80.9097 24.272 80.0217 24.464 79.1897 24.848C78.3577 25.232 77.6217 25.76 76.9817 26.432C76.3577 27.104 75.8697 27.888 75.5177 28.784C75.1657 29.664 74.9897 30.608 74.9897 31.616C74.9897 32.64 75.1657 33.6 75.5177 34.496C75.8697 35.376 76.3577 36.152 76.9817 36.824C77.6217 37.496 78.3577 38.024 79.1897 38.408C80.0217 38.776 80.9097 38.96 81.8537 38.96C82.6697 38.96 83.4377 38.824 84.1577 38.552C84.8937 38.264 85.5977 37.872 86.2697 37.376C86.5577 37.168 86.8377 37.08 87.1097 37.112C87.3977 37.128 87.6378 37.24 87.8298 37.448C88.0217 37.64 88.1177 37.912 88.1177 38.264C88.1177 38.6 87.9897 38.896 87.7338 39.152C86.0057 40.544 84.0457 41.24 81.8537 41.24ZM101.014 41.24C99.606 41.24 98.318 41.008 97.15 40.544C95.982 40.064 94.974 39.4 94.126 38.552C93.294 37.688 92.646 36.672 92.182 35.504C91.718 34.32 91.486 33.024 91.486 31.616C91.486 30.208 91.718 28.92 92.182 27.752C92.646 26.584 93.294 25.576 94.126 24.728C94.974 23.864 95.982 23.2 97.15 22.736C98.318 22.256 99.606 22.016 101.014 22.016C102.422 22.016 103.702 22.256 104.854 22.736C106.022 23.2 107.03 23.864 107.878 24.728C108.726 25.576 109.382 26.584 109.846 27.752C110.31 28.92 110.542 30.208 110.542 31.616C110.542 33.024 110.31 34.32 109.846 35.504C109.382 36.672 108.726 37.688 107.878 38.552C107.03 39.4 106.022 40.064 104.854 40.544C103.702 41.008 102.422 41.24 101.014 41.24ZM101.014 38.984C102.406 38.984 103.638 38.664 104.71 38.024C105.782 37.368 106.622 36.488 107.23 35.384C107.838 34.264 108.142 33.008 108.142 31.616C108.142 30.224 107.838 28.976 107.23 27.872C106.622 26.752 105.782 25.872 104.71 25.232C103.638 24.592 102.406 24.272 101.014 24.272C99.622 24.272 98.39 24.592 97.318 25.232C96.246 25.872 95.406 26.752 94.798 27.872C94.19 28.976 93.886 30.224 93.886 31.616C93.886 33.008 94.19 34.264 94.798 35.384C95.406 36.488 96.246 37.368 97.318 38.024C98.39 38.664 99.622 38.984 101.014 38.984Z" fill="white"/>
</svg>
