<svg width="30" height="30" viewBox="0 0 30 30" fill="none" xmlns="http://www.w3.org/2000/svg">
<rect width="30" height="30" rx="7" fill="black" fill-opacity="0.7"/>
<path fill-rule="evenodd" clip-rule="evenodd" d="M25 2H5C4.53919 2 4.10264 2.1039 3.7125 2.28955L15.1006 13.4852L26.2929 2.29289C26.2931 2.29272 26.2932 2.29255 26.2934 2.29237C25.9018 2.10495 25.4631 2 25 2ZM27.7076 3.70658C27.7075 3.70676 27.7073 3.70693 27.7071 3.70711L16.5269 14.8873L27.7011 25.8727C27.747 25.9179 27.7877 25.9664 27.823 26.0175C27.9376 25.6998 28 25.3572 28 25V5C28 4.53685 27.895 4.09822 27.7076 3.70658ZM13.6863 14.8994L2.29516 3.70078C2.10599 4.09389 2 4.53456 2 5V25C2 25.4631 2.10495 25.9018 2.29237 26.2934C2.29255 26.2932 2.29272 26.2931 2.29289 26.2929L13.6863 14.8994ZM3.70658 27.7076C3.70676 27.7075 3.70693 27.7073 3.70711 27.7071L15.1126 16.3016L26.2989 27.2989C26.398 27.3962 26.5121 27.4688 26.6337 27.5166C26.1637 27.8223 25.6026 28 25 28H5C4.53685 28 4.09822 27.895 3.70658 27.7076ZM5 0C2.23858 0 0 2.23858 0 5V25C0 27.7614 2.23858 30 5 30H25C27.7614 30 30 27.7614 30 25V5C30 2.23858 27.7614 0 25 0H5Z" fill="white"/>
</svg>
