<svg width="80" height="80" viewBox="0 0 80 80" fill="none" xmlns="http://www.w3.org/2000/svg">
<path fill-rule="evenodd" clip-rule="evenodd" d="M78 40C78 60.9868 60.9868 78 40 78C19.0132 78 2 60.9868 2 40C2 19.0132 19.0132 2 40 2C60.9868 2 78 19.0132 78 40ZM80 40C80 62.0914 62.0914 80 40 80C17.9086 80 0 62.0914 0 40C0 17.9086 17.9086 0 40 0C62.0914 0 80 17.9086 80 40ZM40.3684 15L55.6023 36.5738L68 55L40.3684 23.1951L13 55L25.1346 36.5738L40.3684 15ZM39.9139 35L49.8851 48.4836L58 60L39.9139 40.122L22 60L29.9426 48.4836L39.9139 35Z" fill="#333333"/>
</svg>
